<svg version="1.1" xmlns="http://www.w3.org/2000/svg" xmlns:xlink="http://www.w3.org/1999/xlink" width="24px" height="24px" viewBox="0,0,256,256"><g fill="#fffcfc" fill-rule="nonzero" stroke="none" stroke-width="1" stroke-linecap="butt" stroke-linejoin="round" stroke-miterlimit="2" stroke-dasharray="" stroke-dashoffset="0" font-family="none" font-weight="none" font-size="none" text-anchor="none" style="mix-blend-mode: normal"><g transform="scale(10.66667,10.66667)"><path d="M11.3,13.7c0,-0.53 -0.47,-1 -1,-1h-7.3c-0.53,0 -1,0.47 -1,1v5.3c0,0.53 0.47,1 1,1h7.3c0.53,0 1,-0.47 1,-1zM22,13.7c0,-0.53 -0.47,-1 -1,-1h-7.3c-0.53,0 -1,0.47 -1,1v5.3c0,0.53 0.47,1 1,1h7.3c0.53,0 1,-0.47 1,-1zM14.2,14.2h6.3v4.3h-6.3zM3.5,14.2h6.3v4.3h-6.3zM22,5c0,-0.53 -0.47,-1 -1,-1h-7.3c-0.53,0 -1,0.47 -1,1v5.3c0,0.53 0.47,1 1,1h7.3c0.53,0 1,-0.47 1,-1zM11.3,5c0,-0.53 -0.47,-1 -1,-1h-7.3c-0.53,0 -1,0.47 -1,1v5.3c0,0.53 0.47,1 1,1h7.3c0.53,0 1,-0.47 1,-1zM14.2,5.5h6.3v4.3h-6.3zM3.5,5.5h6.3v4.3h-6.3z"></path></g></g></svg>