<svg version="1.1" xmlns="http://www.w3.org/2000/svg" xmlns:xlink="http://www.w3.org/1999/xlink" width="24px" height="24px" viewBox="0,0,256,256"><g fill="#ffffff" fill-rule="nonzero" stroke="none" stroke-width="1" stroke-linecap="butt" stroke-linejoin="round" stroke-miterlimit="2" stroke-dasharray="" stroke-dashoffset="0" font-family="none" font-weight="none" font-size="none" text-anchor="none" style="mix-blend-mode: normal"><g transform="translate(0,2.66667) scale(10.66667,10.66667)"><path d="M22,16.75c0,-0.414 -0.336,-0.75 -0.75,-0.75h-18.5c-0.414,0 -0.75,0.336 -0.75,0.75c0,0.414 0.336,0.75 0.75,0.75h18.5c0.414,0 0.75,-0.336 0.75,-0.75zM22,11.75c0,-0.414 -0.336,-0.75 -0.75,-0.75h-18.5c-0.414,0 -0.75,0.336 -0.75,0.75c0,0.414 0.336,0.75 0.75,0.75h18.5c0.414,0 0.75,-0.336 0.75,-0.75zM22,6.75c0,-0.414 -0.336,-0.75 -0.75,-0.75h-18.5c-0.414,0 -0.75,0.336 -0.75,0.75c0,0.414 0.336,0.75 0.75,0.75h18.5c0.414,0 0.75,-0.336 0.75,-0.75z"></path></g></g></svg>