<svg version="1.1" xmlns="http://www.w3.org/2000/svg" xmlns:xlink="http://www.w3.org/1999/xlink" width="24px" height="24px" viewBox="0,0,256,256"><g fill="#ffffff" fill-rule="nonzero" stroke="none" stroke-width="1" stroke-linecap="butt" stroke-linejoin="round" stroke-miterlimit="2" stroke-dasharray="" stroke-dashoffset="0" font-family="none" font-weight="none" font-size="none" text-anchor="none" style="mix-blend-mode: normal"><g transform="scale(10.66667,10.66667)"><path d="M2.394,15.759c0,0 7.554,4.246 9.09,5.109c0.165,0.093 0.333,0.132 0.492,0.132c0.178,0 0.344,-0.049 0.484,-0.127c1.546,-0.863 9.155,-5.113 9.155,-5.113c0.246,-0.138 0.385,-0.393 0.385,-0.656c0,-0.566 -0.614,-0.934 -1.116,-0.654c0,0 -7.052,3.958 -8.539,4.77c-0.211,0.115 -0.444,0.161 -0.722,0.006c-1.649,-0.928 -8.494,-4.775 -8.494,-4.775c-0.502,-0.282 -1.117,0.085 -1.117,0.653c0,0.262 0.137,0.517 0.382,0.655zM2.394,12.646c0,0 7.554,4.246 9.09,5.109c0.165,0.093 0.333,0.132 0.492,0.132c0.178,0 0.344,-0.049 0.484,-0.127c1.546,-0.863 9.155,-5.113 9.155,-5.113c0.246,-0.138 0.385,-0.393 0.385,-0.656c0,-0.566 -0.614,-0.934 -1.116,-0.654c0,0 -7.052,3.958 -8.539,4.77c-0.211,0.115 -0.444,0.161 -0.722,0.006c-1.649,-0.928 -8.494,-4.775 -8.494,-4.775c-0.502,-0.282 -1.117,0.085 -1.117,0.653c0,0.262 0.137,0.517 0.382,0.655zM12.665,3.191c-0.246,-0.128 -0.471,-0.191 -0.692,-0.191c-0.223,0 -0.443,0.065 -0.675,0.191l-8.884,5.005c-0.276,0.183 -0.414,0.444 -0.414,0.698c0,0.256 0.139,0.505 0.414,0.664l8.884,5.006c0.221,0.133 0.447,0.203 0.678,0.203c0.223,0 0.452,-0.065 0.689,-0.203l8.884,-5.006c0.295,-0.166 0.451,-0.421 0.451,-0.68c0,-0.25 -0.145,-0.503 -0.451,-0.682zM4.261,8.877l7.721,-4.349l7.72,4.349l-7.72,4.35z"></path></g></g></svg>