<svg version="1.1" xmlns="http://www.w3.org/2000/svg" xmlns:xlink="http://www.w3.org/1999/xlink" width="24" height="24" viewBox="0,0,256,256"><g fill="#ffffff" fill-rule="nonzero" stroke="none" stroke-width="1" stroke-linecap="butt" stroke-linejoin="miter" stroke-miterlimit="10" stroke-dasharray="" stroke-dashoffset="0" font-family="none" font-weight="none" font-size="none" text-anchor="none" style="mix-blend-mode: normal"><g transform="scale(10.66667,10.66667)"><path d="M12,2c2.757,0 5,2.243 5,5.001c0,2.756 -2.243,5 -5,5c-2.757,0 -5,-2.244 -5,-5c0,-2.758 2.243,-5.001 5,-5.001zM12,0c-3.866,0 -7,3.134 -7,7.001c0,3.865 3.134,7 7,7c3.866,0 7,-3.135 7,-7c0,-3.867 -3.134,-7.001 -7,-7.001zM18.369,13.353c-0.497,0.498 -1.057,0.931 -1.658,1.302c2.872,1.874 4.378,5.083 4.972,7.346h-19.387c0.572,-2.29 2.058,-5.503 4.973,-7.358c-0.603,-0.374 -1.162,-0.811 -1.658,-1.312c-4.258,3.072 -5.611,8.506 -5.611,10.669h24c0,-2.142 -1.44,-7.557 -5.631,-10.647z"></path></g></g></svg>